<svg width="20" height="20" viewBox="0 0 20 20" fill="none" xmlns="http://www.w3.org/2000/svg">
<rect width="20" height="20" rx="10" fill="#EBA900"/>
<path d="M14.7096 10.1201V11.5826H15.5407V12.0851H14.7096V13.5283H14.0911V10.1201H14.7096ZM12.8412 13.6378C14.0202 13.6378 14.7547 14.0501 14.7547 14.7588C14.7547 15.4675 14.0202 15.8863 12.8412 15.8798C11.6493 15.8863 10.902 15.4675 10.902 14.7588C10.902 14.0501 11.6493 13.6378 12.8412 13.6378ZM12.8412 14.1339C12.0037 14.1274 11.5012 14.3594 11.5076 14.7588C11.5012 15.1583 12.0037 15.3902 12.8412 15.3902C13.6594 15.3902 14.162 15.1583 14.1684 14.7588C14.162 14.3594 13.6594 14.1274 12.8412 14.1339ZM12.9894 10.5453V11.0414H11.018V12.6134C12.1551 12.6102 12.7961 12.5748 13.5241 12.4266L13.5821 12.9227C12.809 13.0837 12.1197 13.1095 10.8698 13.1095H10.4124V10.5453H12.9894Z" fill="white"/>
<path d="M9.74231 13.1415V13.6311H7.44873V14.6942H6.84312V13.6311H4.45935V13.1415H9.74231ZM9.15603 15.274V15.7701H5.1165V14.1916H5.72211V15.274H9.15603ZM5.76076 10.3003V11.0025H8.43445V10.3003H9.0465V12.6325H5.15515V10.3003H5.76076ZM5.76076 12.1429H8.43445V11.46H5.76076V12.1429Z" fill="white"/>
<path d="M14.9544 4.12012V8.31427H14.3423V4.12012H14.9544ZM15.1283 9.26778V9.76386H11.179V7.88906H11.7975V9.26778H15.1283ZM11.8232 4.50668C12.693 4.50668 13.3566 5.0994 13.3566 5.93694C13.3566 6.78737 12.693 7.37365 11.8232 7.37365C10.9535 7.37365 10.2834 6.78737 10.2834 5.93694C10.2834 5.0994 10.9535 4.50668 11.8232 4.50668ZM11.8232 5.04141C11.2821 5.04141 10.8826 5.40864 10.8826 5.93694C10.8826 6.47812 11.2821 6.83891 11.8232 6.83891C12.3515 6.83891 12.7574 6.47812 12.7574 5.93694C12.7574 5.40864 12.3515 5.04141 11.8232 5.04141Z" fill="white"/>
<path d="M7.42299 4.62282C7.41655 5.38949 8.35717 6.11107 9.49107 6.25925L9.2527 6.76177C8.30885 6.61037 7.47775 6.12073 7.1073 5.44103C6.72718 6.12395 5.89931 6.61037 4.9619 6.76177L4.71708 6.25925C5.85099 6.11107 6.77873 5.39593 6.78517 4.62282V4.30713H7.42299V4.62282ZM9.72945 7.32872V7.83125H7.38433V9.88645H6.78517V7.83125H4.46582V7.32872H9.72945Z" fill="white"/>
</svg>
