<svg width="24" height="24" viewBox="0 0 24 24" fill="none" xmlns="http://www.w3.org/2000/svg">
<path d="M12.2246 0.00390625C18.6637 0.167237 23.833 5.43856 23.833 11.917L23.8291 12.2246C23.6658 18.6636 18.3953 23.8328 11.917 23.833L11.6094 23.8291C5.27234 23.6687 0.164647 18.5616 0.00390625 12.2246L0 11.917C0 5.3356 5.3356 0 11.917 0L12.2246 0.00390625ZM11.917 1.2998C6.05357 1.2998 1.2998 6.05357 1.2998 11.917C1.29998 17.7803 6.05368 22.5332 11.917 22.5332C17.7802 22.533 22.533 17.7802 22.5332 11.917C22.5332 6.05368 17.7803 1.29998 11.917 1.2998ZM11.458 6.36035C13.0671 6.36035 14.5304 6.98861 15.5918 8.00879C15.7103 8.12271 15.8589 8.27393 16.0166 8.43652V7.56738C16.0166 7.2084 16.308 6.91699 16.667 6.91699C17.0258 6.9172 17.3164 7.20852 17.3164 7.56738V10.0713C17.3164 10.0762 17.3146 10.0811 17.3145 10.0859C17.3141 10.1043 17.3115 10.1224 17.3096 10.1406C17.3071 10.1641 17.3047 10.1873 17.2998 10.21C17.295 10.2319 17.2873 10.2529 17.2803 10.2744C17.274 10.2935 17.2687 10.3128 17.2607 10.3311C17.2508 10.3539 17.2373 10.3747 17.2246 10.3965C17.2165 10.4104 17.2103 10.4252 17.2012 10.4385C17.1885 10.4569 17.1729 10.4729 17.1582 10.4902C17.1438 10.5072 17.1303 10.5247 17.1143 10.54C17.1116 10.5426 17.1101 10.5463 17.1074 10.5488C17.0986 10.557 17.0873 10.5627 17.0781 10.5703C17.0567 10.588 17.0353 10.6052 17.0117 10.6201C16.9984 10.6285 16.9844 10.6353 16.9707 10.6426C16.9478 10.6548 16.9248 10.6663 16.9004 10.6758C16.8798 10.6837 16.859 10.6896 16.8379 10.6953C16.8195 10.7004 16.8012 10.7056 16.7822 10.709C16.7599 10.713 16.7374 10.7142 16.7148 10.7158C16.6989 10.717 16.6832 10.7217 16.667 10.7217H14.0625C13.7035 10.7217 13.4121 10.4303 13.4121 10.0713C13.4122 9.71235 13.7035 9.42188 14.0625 9.42188H15.1611C14.982 9.23626 14.8146 9.06564 14.6904 8.94629C13.8665 8.15444 12.7248 7.66113 11.458 7.66113C8.91667 7.6613 6.90077 9.63592 6.90039 12.0186C6.90039 14.4015 8.91644 16.3768 11.458 16.377H11.459C12.0609 16.3778 12.6571 16.2639 13.2119 16.043C13.7665 15.822 14.2691 15.4981 14.6904 15.0918C14.9488 14.8433 15.3604 14.8505 15.6094 15.1084C15.8585 15.3667 15.851 15.7791 15.5928 16.0283C15.0482 16.5534 14.4016 16.9685 13.6924 17.251C12.9833 17.5333 12.224 17.6767 11.458 17.6758V17.6768C8.24699 17.6766 5.59961 15.167 5.59961 12.0186C5.59998 8.87038 8.24721 6.36052 11.458 6.36035Z" fill="#979797"/>
</svg>
