<svg width="16" height="16" viewBox="0 0 16 16" fill="none" xmlns="http://www.w3.org/2000/svg">
<path d="M13.2892 7.30638C13.1633 6.34641 12.7785 5.43881 12.176 4.68093C11.5735 3.92305 10.7761 3.34347 9.86921 3.00436C8.96235 2.66525 7.98029 2.57939 7.02834 2.75599C6.07639 2.9326 5.19048 3.365 4.4656 4.00684C3.74073 4.64867 3.20425 5.47572 2.91368 6.39928C2.62312 7.32284 2.58945 8.30807 2.81627 9.24932C3.0431 10.1906 3.52186 11.0523 4.20122 11.7421C4.88058 12.432 5.7349 12.9239 6.67257 13.165C9.2719 13.8317 11.9626 12.4937 12.9559 10.0004" stroke="#919191" stroke-width="1.05556" stroke-linecap="round" stroke-linejoin="round"/>
<path d="M13.3338 13.3354V10.0021H10.0005" stroke="#919191" stroke-width="1.05556" stroke-linecap="round" stroke-linejoin="round"/>
</svg>
